<?xml version="1.0" standalone="no"?>
<!DOCTYPE svg PUBLIC "-//W3C//DTD SVG 20010904//EN"
 "http://www.w3.org/TR/2001/REC-SVG-20010904/DTD/svg10.dtd">
<svg version="1.0" xmlns="http://www.w3.org/2000/svg"
 width="700" height="500" viewBox="550 100 1000 600"
 preserveAspectRatio="none">"xMidYMid meet">
<metadata>
Created by potrace 1.15, written by Peter Selinger 2001-2017
</metadata>
<g transform="translate(0.000000,628.000000) scale(0.100000,-0.100000)"
fill="#45315d" stroke="none">
<!--<path d="M2224 5970 c-124 -25 -189 -88 -277 -267 -34 -70 -80 -146 -102 -171
-37 -41 -45 -45 -90 -46 -43 -1 -50 -4 -50 -21 0 -17 6 -20 47 -19 33 0 49 -4
53 -15 3 -8 -20 -68 -51 -134 -65 -135 -78 -201 -50 -255 21 -40 44 -52 98
-52 50 0 87 22 123 70 29 40 32 54 8 42 -33 -18 -83 -2 -104 32 -24 39 -24 65
1 146 24 78 25 121 5 161 -15 29 -15 30 21 61 20 18 84 95 141 171 156 206
248 287 327 287 31 0 86 -48 86 -75 0 -30 -30 -75 -55 -81 -38 -9 -57 2 -53
33 4 35 -19 42 -28 7 -13 -50 29 -79 91 -62 45 12 65 42 65 98 0 88 -68 117
-206 90z"/>
<path d="M1460 5935 c-143 -39 -287 -148 -348 -263 -77 -145 -54 -325 49 -386
41 -24 95 -36 131 -29 43 9 120 84 152 148 56 114 42 225 -27 225 -37 0 -57
-15 -57 -42 0 -24 17 -23 30 2 14 25 36 26 50 1 30 -57 -8 -179 -80 -253 -43
-44 -51 -49 -85 -46 -60 5 -80 41 -79 136 2 172 127 352 309 445 83 42 193 49
278 17 31 -12 57 -23 57 -26 0 -2 -35 -39 -78 -82 -77 -75 -82 -83 -201 -322
-67 -135 -144 -275 -171 -311 -109 -146 -249 -178 -324 -76 -17 23 -18 31 -8
47 23 37 11 65 -16 38 -21 -21 -14 -84 13 -116 39 -47 71 -55 202 -50 108 3
122 6 172 33 60 33 114 90 153 161 15 27 56 137 93 244 74 217 144 372 178
395 18 11 31 12 60 4 42 -11 77 -4 77 16 0 17 -22 25 -67 25 -21 0 -67 16
-111 37 -72 36 -81 38 -186 40 -75 2 -129 -2 -166 -12z"/>
<path d="M4509 5902 c-94 -60 -217 -215 -312 -391 -25 -46 -65 -99 -103 -136
-36 -35 -66 -74 -70 -91 -10 -41 -57 -107 -88 -123 -14 -8 -28 -12 -30 -10 -2
2 13 33 34 68 21 35 51 101 66 147 31 97 28 144 -11 183 -22 22 -34 26 -88 26
-45 0 -76 -7 -112 -25 -62 -29 -162 -130 -192 -190 -12 -25 -40 -83 -62 -130
-23 -47 -59 -106 -82 -132 -39 -46 -69 -61 -69 -35 0 6 32 76 72 155 65 127
73 150 76 210 3 57 0 72 -20 101 -12 19 -30 39 -39 44 -28 17 -72 -3 -121 -54
l-47 -50 60 128 59 128 -72 3 c-51 2 -74 -1 -79 -10 -4 -7 -43 -61 -87 -119
-43 -58 -103 -148 -132 -200 -30 -52 -57 -96 -60 -99 -4 -3 -23 -30 -42 -60
-20 -30 -50 -68 -67 -85 l-32 -30 10 26 c5 14 37 82 72 150 34 68 77 157 95
197 l33 72 -69 0 c-68 0 -70 -1 -87 -32 -15 -28 -18 -30 -21 -13 -7 36 -23 45
-76 45 -124 -1 -214 -84 -331 -309 -80 -153 -134 -231 -161 -231 -8 0 -14 4
-14 9 0 21 35 103 129 305 56 118 101 218 101 221 0 3 -32 5 -70 5 -65 0 -71
-2 -82 -25 -14 -31 -20 -31 -33 -2 -9 19 -19 22 -72 25 -81 4 -117 -14 -185
-87 -63 -68 -102 -136 -123 -216 -27 -105 -15 -193 34 -239 62 -58 145 -24
200 82 l19 36 7 -44 c15 -90 40 -114 102 -98 35 9 67 46 112 127 l28 52 7 -49
c12 -93 85 -157 151 -132 51 19 22 0 -76 -52 -189 -98 -289 -208 -289 -318 0
-107 76 -131 198 -63 70 39 142 106 191 176 15 23 60 105 99 182 58 115 77
145 111 170 23 17 62 57 86 90 25 33 49 65 53 70 5 6 26 42 47 80 38 69 129
211 147 230 15 15 -2 -21 -231 -513 -116 -249 -211 -455 -211 -457 0 -3 33 -5
73 -5 l72 0 109 238 c171 369 249 520 314 609 56 76 110 121 126 106 16 -17 0
-59 -65 -169 -97 -162 -120 -213 -121 -272 0 -62 17 -90 65 -103 64 -17 128
29 194 139 l20 33 6 -42 c10 -78 69 -132 141 -131 58 2 92 19 144 76 32 34 50
46 71 46 17 0 42 11 59 25 34 29 92 114 92 136 0 8 13 30 29 49 l29 35 -20
-60 c-14 -39 -21 -86 -21 -137 -1 -67 3 -82 26 -117 30 -45 72 -62 125 -50 49
11 95 51 147 129 39 59 51 70 75 70 16 0 35 3 43 6 11 4 15 -8 19 -56 7 -95
61 -153 142 -152 58 2 92 19 144 76 33 36 49 46 74 46 24 0 41 10 75 45 43 45
43 45 43 18 0 -110 68 -184 169 -185 63 0 97 19 159 87 58 64 128 193 112 209
-12 12 -10 15 -55 -71 -63 -123 -140 -193 -209 -193 -34 0 -58 38 -54 85 3 36
5 38 59 55 142 43 259 179 259 301 0 148 -176 147 -313 -1 -30 -32 -65 -80
-79 -107 -63 -126 -139 -221 -168 -211 -5 2 9 32 30 67 21 35 51 101 66 147
31 97 28 144 -11 183 -22 22 -34 26 -88 26 -45 0 -76 -7 -112 -25 -69 -33
-163 -131 -205 -214 -32 -63 -78 -116 -101 -116 -15 0 -11 17 17 73 56 109 84
219 68 261 -19 48 -99 -18 -133 -109 -22 -59 -29 -172 -12 -204 20 -37 -105
-192 -166 -207 -29 -8 -53 15 -53 49 0 32 56 188 105 295 l47 101 91 57 c110
70 223 175 248 229 23 49 24 113 3 143 -23 34 -96 31 -155 -6z m97 -67 c-14
-31 -40 -75 -58 -98 -41 -55 -136 -153 -171 -179 l-29 -21 28 54 c96 190 216
340 248 309 4 -5 -3 -33 -18 -65z m-632 -298 c9 -7 20 -31 23 -53 5 -37 3 -40
-29 -56 -66 -31 -136 -171 -125 -251 7 -51 -15 -86 -77 -122 -54 -32 -81 -32
-102 0 -16 24 -15 29 5 91 66 200 202 403 272 404 8 0 23 -6 33 -13z m960 0
c9 -7 20 -31 23 -53 5 -37 3 -40 -29 -56 -66 -31 -136 -171 -125 -251 7 -51
-15 -86 -77 -122 -54 -32 -81 -32 -102 0 -16 24 -15 29 5 91 66 200 202 403
272 404 8 0 23 -6 33 -13z m434 -25 c6 -57 -107 -236 -185 -294 -72 -54 -70
-36 9 122 61 123 133 217 160 208 7 -3 14 -19 16 -36z m-3036 2 c17 -37 -1
-95 -82 -261 -65 -133 -129 -223 -158 -223 -6 0 -19 11 -28 24 -13 21 -14 33
-4 80 17 83 130 304 184 359 51 53 71 58 88 21z m530 2 c16 -37 -3 -101 -82
-263 -65 -132 -129 -223 -158 -223 -6 0 -19 11 -28 25 -14 21 -14 32 -4 77 37
154 188 408 244 408 9 0 21 -11 28 -24z m-263 -648 c-61 -121 -133 -230 -185
-278 -46 -42 -69 -47 -87 -18 -16 25 42 133 115 213 60 65 174 164 191 165 4
0 -11 -37 -34 -82z"/>
<path d="M10099 5902 c-95 -61 -220 -218 -314 -394 -25 -47 -59 -93 -87 -118
-53 -46 -88 -97 -86 -125 2 -41 -117 -215 -148 -215 -25 0 -15 28 57 170 63
123 72 147 76 207 4 60 2 72 -19 103 -31 46 -83 53 -135 18 -30 -20 -98 -101
-128 -152 -8 -13 -10 -2 -11 42 -2 82 -27 126 -76 130 -42 4 -66 -21 -126
-125 l-37 -65 -6 70 c-3 40 -12 81 -22 96 -24 36 -68 35 -102 -1 -30 -33 -89
-146 -135 -255 -67 -162 -153 -258 -231 -258 -68 0 -78 68 -29 201 70 193 195
354 231 298 16 -25 9 -47 -16 -53 -51 -13 -98 -131 -71 -175 20 -33 101 10
131 70 23 43 20 141 -6 173 -18 23 -27 26 -82 26 -39 0 -77 -7 -102 -19 -65
-30 -151 -129 -197 -227 -74 -159 -152 -274 -184 -274 -25 0 -15 28 57 170 63
123 72 147 76 207 4 60 2 72 -19 103 -31 46 -83 53 -135 18 -30 -20 -98 -101
-128 -152 -8 -13 -10 -2 -11 42 -2 82 -27 126 -76 130 -42 4 -66 -21 -126
-125 l-37 -65 -6 70 c-6 85 -27 122 -69 122 -45 0 -71 -37 -177 -245 -128
-254 -172 -319 -203 -300 -13 8 20 93 115 295 48 102 93 200 101 218 l15 33
-78 -3 -77 -3 -51 -115 -52 -115 -55 -5 -56 -5 6 57 c5 63 -11 144 -35 171
-27 29 -67 21 -104 -20 -31 -36 -129 -228 -129 -254 0 -22 -63 -130 -101 -173
-92 -104 -196 -98 -187 9 3 36 5 38 59 55 142 43 259 179 259 301 0 148 -176
147 -314 -1 -30 -33 -66 -85 -81 -117 -75 -163 -111 -227 -147 -264 -39 -40
-58 -43 -58 -9 0 11 32 80 71 155 83 160 94 213 61 288 -22 50 -50 65 -98 53
-58 -15 -185 -169 -219 -267 -22 -62 -102 -205 -137 -245 -28 -32 -58 -45 -58
-25 0 21 35 103 129 305 56 118 101 218 101 221 0 3 -32 5 -70 5 -65 0 -71 -2
-82 -25 -14 -31 -20 -31 -33 -2 -9 19 -19 22 -72 25 -81 4 -117 -14 -185 -87
-63 -68 -102 -136 -123 -216 -27 -105 -15 -193 34 -239 62 -58 145 -24 200 82
l19 36 7 -44 c15 -90 40 -114 103 -98 43 12 79 62 162 230 75 151 117 214 185
276 48 45 62 50 71 27 9 -23 -13 -68 -79 -158 -110 -152 -138 -240 -99 -317
48 -96 164 -61 246 75 l23 37 12 -48 c21 -81 76 -125 160 -126 63 0 97 19 159
87 48 52 122 181 122 212 0 8 23 59 50 113 48 93 83 140 96 127 13 -13 -67
-217 -175 -450 -23 -49 -41 -91 -41 -93 0 -2 33 -4 73 -4 l73 0 70 155 69 155
53 0 c28 0 52 -1 52 -2 0 -2 -10 -28 -21 -58 -30 -77 -32 -178 -3 -217 15 -20
31 -29 59 -31 61 -5 102 48 227 299 98 198 139 262 154 246 11 -10 -37 -137
-128 -341 -48 -110 -88 -201 -88 -203 0 -1 32 -3 71 -3 l70 0 26 58 c13 31 60
129 104 217 107 217 179 319 179 254 0 -27 -89 -252 -159 -403 -28 -59 -51
-112 -51 -117 0 -5 32 -9 71 -9 l70 0 34 74 c88 193 159 327 207 391 53 70 98
99 118 79 15 -15 0 -49 -90 -204 -85 -145 -107 -205 -96 -262 9 -50 39 -73 91
-72 55 1 85 23 145 107 l48 68 16 -55 c11 -37 27 -63 51 -85 32 -27 43 -31 97
-31 86 0 133 29 195 122 26 40 56 93 66 118 92 226 217 407 157 224 -21 -61
-82 -207 -169 -396 l-30 -68 72 0 72 0 75 162 c72 155 164 323 197 361 22 23
33 22 33 -5 0 -26 -90 -253 -159 -402 -28 -59 -51 -110 -51 -112 0 -2 33 -4
73 -4 l73 0 74 162 c109 235 207 378 261 378 44 0 33 -33 -70 -208 -84 -141
-106 -198 -98 -254 8 -58 30 -78 89 -78 60 0 92 22 146 99 48 68 105 179 98
190 -3 4 8 23 24 42 l28 34 -20 -60 c-30 -87 -29 -199 1 -248 28 -46 48 -57
104 -57 60 0 111 39 171 128 43 65 49 70 86 74 l40 4 0 -44 c0 -96 58 -162
141 -162 62 0 93 16 147 74 32 34 50 46 71 46 37 0 79 35 120 98 30 48 40 82
22 82 -4 0 -24 -26 -44 -59 -35 -56 -78 -96 -97 -89 -5 2 9 32 30 67 21 35 51
101 66 147 31 97 28 144 -11 183 -22 22 -34 26 -88 26 -82 -1 -144 -31 -222
-109 -41 -42 -73 -86 -98 -138 -35 -72 -78 -120 -94 -104 -4 4 6 32 21 64 59
118 86 224 70 266 -19 48 -99 -18 -133 -109 -22 -59 -29 -172 -12 -204 20 -37
-105 -192 -166 -207 -29 -8 -53 15 -53 49 0 32 56 188 105 295 l47 101 91 57
c110 70 223 175 248 229 23 49 24 113 3 143 -23 34 -96 31 -155 -6z m97 -67
c-14 -31 -40 -75 -58 -98 -41 -55 -136 -153 -171 -179 l-29 -21 28 54 c96 190
216 340 248 309 4 -5 -3 -33 -18 -65z m-3238 -323 c6 -57 -107 -236 -185 -294
-72 -54 -70 -36 9 122 61 123 133 217 160 208 7 -3 14 -19 16 -36z m3556 25
c9 -7 20 -31 23 -53 5 -37 3 -40 -29 -56 -66 -31 -136 -171 -125 -251 7 -51
-15 -86 -77 -122 -54 -32 -81 -32 -102 0 -16 24 -15 29 5 91 66 200 202 403
272 404 8 0 23 -6 33 -13z m-4452 -23 c17 -37 -1 -95 -82 -261 -65 -133 -129
-223 -158 -223 -6 0 -19 11 -28 24 -13 21 -14 33 -4 80 17 83 130 304 184 359
51 53 71 58 88 21z"/>-->
<path d="M7984 4925 c-176 -26 -273 -55 -419 -125 -224 -107 -373 -217 -575
-427 -129 -133 -204 -233 -297 -396 -117 -206 -155 -343 -155 -561 1 -259 76
-472 226 -642 71 -81 183 -146 286 -168 23 -5 28 -13 39 -68 20 -102 89 -233
160 -305 118 -119 249 -187 406 -213 89 -15 393 -15 510 -1 208 26 487 112
678 207 337 169 697 478 1607 1379 632 625 729 719 708 685 -8 -14 -71 -110
-140 -215 -74 -113 -148 -240 -183 -315 -96 -207 -413 -835 -493 -980 -171
-306 -275 -455 -383 -546 -163 -139 -275 -157 -704 -118 -195 18 -274 15 -323
-10 -68 -35 -30 -88 105 -146 63 -26 83 -30 167 -30 107 0 264 20 441 56 101
20 149 24 300 24 300 0 435 25 612 110 82 40 191 112 288 190 7 5 10 -24 10
-83 0 -76 4 -100 23 -139 46 -93 163 -114 288 -53 58 28 217 175 276 254 l26
34 -2 -89 c-1 -77 2 -96 24 -139 30 -59 68 -84 143 -92 42 -4 64 -1 101 16 93
41 279 244 431 471 43 63 141 197 217 298 l140 183 22 -35 c40 -67 118 -107
213 -109 24 0 43 -2 43 -4 0 -4 -45 -60 -178 -219 l-83 -99 -87 -12 c-189 -28
-408 -179 -487 -337 -49 -98 -26 -146 71 -146 102 0 247 101 447 310 l115 121
30 -26 c63 -53 67 -164 13 -315 l-31 -86 -68 -33 c-100 -49 -292 -164 -417
-249 -329 -224 -511 -408 -620 -627 -116 -232 -84 -378 74 -336 144 38 491
302 797 606 228 227 380 443 438 626 19 59 33 78 129 180 101 108 106 112 101
78 -15 -93 38 -204 113 -235 47 -20 140 -17 190 6 69 31 162 99 232 169 l66
66 1 -71 c3 -123 54 -191 144 -187 120 4 266 121 450 363 68 91 183 260 178
265 -2 2 -15 6 -29 10 -25 6 -32 -1 -95 -92 -112 -163 -173 -241 -247 -320
-87 -91 -138 -132 -184 -148 -145 -50 -94 111 174 550 109 179 333 568 333
579 0 3 -24 6 -52 6 l-53 0 -80 -101 c-44 -55 -88 -110 -97 -122 -17 -21 -17
-21 -7 17 6 22 9 70 7 108 -3 58 -8 72 -32 97 -37 38 -71 45 -143 31 -117 -24
-202 -81 -387 -260 -195 -189 -343 -369 -417 -507 -19 -35 -86 -122 -149 -194
l-114 -132 -11 64 c-17 107 -67 184 -153 240 l-44 28 94 101 c51 56 125 143
165 194 49 64 87 102 120 121 169 99 303 234 303 307 0 37 -38 62 -81 53 -41
-9 -96 -60 -236 -220 -74 -84 -125 -134 -146 -142 -45 -17 -142 -16 -177 2
-94 49 -93 142 4 265 81 103 110 198 70 230 -22 19 -95 16 -127 -4 -41 -28
-85 -128 -106 -242 l-18 -99 -138 -185 c-76 -102 -148 -198 -161 -215 -13 -16
-70 -93 -127 -170 -197 -265 -353 -425 -413 -425 -14 0 -30 10 -41 26 -14 23
-15 33 -5 83 16 76 94 234 195 394 274 433 320 508 358 582 44 87 46 118 7
131 -11 3 -30 1 -42 -6 -11 -6 -75 -86 -141 -176 -65 -91 -196 -261 -290 -379
-382 -479 -608 -688 -673 -623 -21 21 -13 91 21 173 52 127 113 229 474 790
79 124 102 177 89 210 -6 18 -39 20 -67 4 -27 -14 -340 -407 -510 -640 -74
-101 -157 -206 -186 -234 -70 -70 -183 -146 -317 -215 -94 -49 -128 -60 -226
-79 -144 -26 -355 -51 -439 -51 l-65 0 60 36 c32 19 83 54 113 77 84 64 262
239 327 320 32 39 72 88 89 107 17 19 65 90 108 157 155 246 280 477 411 764
73 162 176 380 227 484 52 105 125 257 163 338 66 140 72 150 130 196 78 61
247 229 286 283 51 69 34 128 -36 128 -66 0 -134 -80 -322 -377 -28 -44 -61
-81 -95 -104 -112 -79 -381 -330 -797 -743 -805 -799 -1127 -1088 -1459 -1309
-160 -106 -277 -163 -456 -223 -207 -68 -347 -88 -615 -89 -257 0 -353 14
-453 68 -102 54 -205 191 -257 343 l-20 56 78 -7 c153 -13 512 31 763 95 326
82 665 276 937 535 125 119 190 203 247 320 56 115 76 208 82 370 6 147 -8
228 -54 321 -58 119 -189 209 -351 241 l-82 16 0 56 c0 172 -100 320 -258 380
-129 50 -386 65 -588 36z m481 -78 c192 -63 305 -190 305 -343 0 -56 -7 -64
-59 -64 -82 0 -333 -82 -507 -165 -295 -142 -706 -517 -910 -830 -131 -203
-191 -381 -216 -650 -7 -71 -16 -125 -22 -125 -6 0 -48 19 -94 42 -118 58
-236 171 -285 270 -56 116 -97 319 -97 476 1 153 39 289 127 452 233 434 672
799 1097 915 170 46 240 55 416 51 146 -3 174 -6 245 -29z m289 -484 c-31
-142 -128 -328 -239 -457 -48 -57 -110 -108 -263 -221 -90 -66 -102 -79 -96
-98 3 -12 8 -24 10 -25 1 -2 36 17 76 43 311 201 520 459 566 699 l17 88 52
-6 c143 -17 301 -125 357 -245 18 -40 21 -64 21 -196 0 -131 -3 -159 -24 -220
-53 -158 -145 -290 -319 -461 -201 -195 -357 -310 -573 -423 -285 -148 -576
-221 -877 -221 -101 0 -238 12 -247 22 -6 6 15 173 30 241 69 308 218 578 490
888 268 305 626 532 960 608 64 14 66 14 59 -16z m5271 -1177 c42 -31 7 -225
-63 -341 -61 -102 -248 -376 -307 -450 -147 -184 -329 -335 -404 -335 -42 0
-52 67 -25 161 47 158 259 480 491 745 43 49 94 109 113 133 40 52 113 101
150 101 14 0 35 -6 45 -14z m-1583 -793 c-58 -73 -239 -238 -319 -290 -97 -65
-145 -25 -82 70 32 49 100 111 182 166 52 36 188 90 225 91 24 0 24 0 -6 -37z
m-3047 -344 c72 -12 134 -24 138 -28 10 -10 -119 -21 -249 -21 -121 0 -195 14
-219 40 -19 21 -17 22 30 34 31 7 158 -3 300 -25z m3093 -239 c-173 -277 -327
-466 -590 -726 -202 -199 -273 -254 -342 -261 -39 -5 -46 -3 -61 21 -33 50 4
147 122 324 129 194 331 386 588 557 105 70 335 198 343 190 2 -2 -25 -49 -60
-105z"/>
</g>
</svg>
